<?xml version="1.0" encoding="utf-8"?>
<!-- Generator: Adobe Illustrator 25.1.0, SVG Export Plug-In . SVG Version: 6.00 Build 0)  -->
<svg version="1.1" id="phone" xmlns="http://www.w3.org/2000/svg" xmlns:xlink="http://www.w3.org/1999/xlink" x="0px" y="0px"
	 viewBox="0 0 2000 2000" style="enable-background:new 0 0 2000 2000;" xml:space="preserve">
<style type="text/css">
	.st0{fill:#333333;}
</style>
<path class="st0" d="M1315.87,1188.46c-4.81-10.9-13.02-22.37-26.88-26.9c-29.56-9.66-147.88-43.73-147.88-43.73
	s-31.85-9.7-52.78,10.52l-44.11,42.61c-0.06,0.05-0.1,0.1-0.17,0.15c-1.32,1.05-16.93,12.96-34.28,3.9
	c-11.38-5.94-64.53-46.87-116.27-98.83c-46.08-49.03-81.19-96.54-86.54-107.24c-8.75-17.5,3.43-32.91,4.5-34.21
	c0.05-0.06,0.09-0.11,0.15-0.16l43.37-43.37c20.58-20.58,11.43-52.59,11.43-52.59S834.4,719.72,825.25,690
	c-4.29-13.93-15.61-22.34-26.43-27.34c-10.27-4.75-21.54-6.96-32.86-6.96h-20.74c-19.12,0-32.01,6.86-32.01,6.86
	c-3.59,2.11-71.3,40.03-86.88,82.31c-16,43.44-13.72,82.31-13.72,82.31c0,86.88,38.87,164.62,38.87,164.62
	c42.04,81.57,97.38,148.27,150.56,200.04c48.51,49.11,109.19,98.98,182.17,138.22c0,0,77.05,40.21,163.92,41.72
	c0,0,38.82,2.96,82.54-12.29c42.55-14.84,81.64-81.89,83.81-85.44c0,0,7.08-12.77,7.41-31.89l0.36-20.74
	C1322.45,1210.12,1320.44,1198.81,1315.87,1188.46z"/>
</svg>
